# xmcd
#
# Track frame offsets: 
#        150
#        21600
#        41085
#        60750
#        81857
#        102277
#        122940
#        143372
#        161132
#        182395
#        205407
#        224380
#        243447
#        262342
#
# Disc length: 3751 seconds
#
# Revision: 5
# Processed by: cddbd v1.5.2PL0 Copyright (c) Steve Scherf et al.
# Submitted via: ExactAudioCopy v0.99pb5
#
DISCID=cb0ea50e
DTITLE=Deborah Cox - One Wish
DYEAR=1998
DGENRE=R&B
TTITLE0=September
TTITLE1=It's Over Now
TTITLE2=Nobody's Supposed To Be Here
TTITLE3=We Can't Be Friends (Duet With RL)
TTITLE4=Couldn't We
TTITLE5=One Wish Feat. Snoop Dogg
TTITLE6=I Won't Give Up
TTITLE7=Just When I Think I'm Over You
TTITLE8=Love Is On The Way
TTITLE9=I Never Knew
TTITLE10=One Day You Will
TTITLE11=Nobody's Supposed To Be Here (Dance Mix)
TTITLE12=Things Just Ain't The Same (Dance Mix)
TTITLE13=September (Remix)
EXTD=
EXTT0=
EXTT1=
EXTT2=
EXTT3=
EXTT4=
EXTT5=
EXTT6=
EXTT7=
EXTT8=
EXTT9=
EXTT10=
EXTT11=
EXTT12=
EXTT13=
PLAYORDER=
